<svg xmlns="http://www.w3.org/2000/svg" viewBox="0 0 800 520" preserveAspectRatio="xMidYMid slice"><defs><linearGradient id="s" x1="0" y1="0" x2="0" y2="1"><stop offset="0" stop-color="#f5a56a"/><stop offset="1" stop-color="#fbe0b0"/></linearGradient></defs><rect width="800" height="520" fill="url(#s)"/><circle cx="160" cy="250" r="112" fill="#fff0c0" opacity="0.25"/><circle cx="160" cy="250" r="62" fill="#fff0c0" opacity="0.95"/><rect x="0" y="300" width="800" height="220" rx="0" fill="#2f87b8"/><path d="M0 330 q 50 -14 100 0 t 100 0 t 100 0 t 100 0 t 100 0 t 100 0 t 100 0 t 100 0" stroke="#ffffff" stroke-opacity=".35" stroke-width="3" fill="none"/><path d="M0 366 q 50 -14 100 0 t 100 0 t 100 0 t 100 0 t 100 0 t 100 0 t 100 0 t 100 0" stroke="#ffffff" stroke-opacity=".35" stroke-width="3" fill="none"/><path d="M0 402 q 50 -14 100 0 t 100 0 t 100 0 t 100 0 t 100 0 t 100 0 t 100 0 t 100 0" stroke="#ffffff" stroke-opacity=".35" stroke-width="3" fill="none"/><path d="M0 438 q 50 -14 100 0 t 100 0 t 100 0 t 100 0 t 100 0 t 100 0 t 100 0 t 100 0" stroke="#ffffff" stroke-opacity=".35" stroke-width="3" fill="none"/><path d="M0 474 q 50 -14 100 0 t 100 0 t 100 0 t 100 0 t 100 0 t 100 0 t 100 0 t 100 0" stroke="#ffffff" stroke-opacity=".35" stroke-width="3" fill="none"/><path d="M0 510 q 50 -14 100 0 t 100 0 t 100 0 t 100 0 t 100 0 t 100 0 t 100 0 t 100 0" stroke="#ffffff" stroke-opacity=".35" stroke-width="3" fill="none"/><polygon points="480,140 480,330 610,330" fill="#fff" /><polygon points="472,160 472,330 390,330" fill="#f6e3c8" /><polygon points="380,340 630,340 600,372 410,372" fill="#7a4a2b" /><rect x="478" y="130" width="4" height="210" rx="0" fill="#4a3320"/></svg>