<svg xmlns="http://www.w3.org/2000/svg" viewBox="0 0 800 520" preserveAspectRatio="xMidYMid slice"><defs><linearGradient id="s" x1="0" y1="0" x2="0" y2="1"><stop offset="0" stop-color="#a6cbea"/><stop offset="1" stop-color="#f3e6cc"/></linearGradient></defs><rect width="800" height="520" fill="url(#s)"/><circle cx="120" cy="100" r="61" fill="#fff3cf" opacity="0.25"/><circle cx="120" cy="100" r="34" fill="#fff3cf" opacity="0.95"/><polygon points="0,520 0,69 89,154 178,77 267,92 356,163 444,116 533,131 622,165 711,88 800,119 800,520" fill="#9a8a78" /><polygon points="0,520 0,204 89,232 178,238 267,247 356,209 444,275 533,254 622,206 711,234 800,214 800,520" fill="#7a6a58" /><polygon points="0,520 0,430 400,400 800,440 800,520" fill="#6f8a55" /><rect x="350" y="400" width="32" height="28" rx="0" fill="#b98a5f"/><rect x="390" y="392" width="32" height="28" rx="0" fill="#b98a5f"/><rect x="430" y="400" width="32" height="28" rx="0" fill="#b98a5f"/><rect x="470" y="392" width="32" height="28" rx="0" fill="#b98a5f"/><polygon points="180,330 230,250 280,330" fill="#e9eef2" /><polygon points="520,300 600,190 680,300" fill="#e9eef2" /></svg>