<svg xmlns="http://www.w3.org/2000/svg" viewBox="0 0 800 520" preserveAspectRatio="xMidYMid slice"><defs><linearGradient id="s" x1="0" y1="0" x2="0" y2="1"><stop offset="0" stop-color="#a9cbe8"/><stop offset="1" stop-color="#fbe9c8"/></linearGradient></defs><rect width="800" height="520" fill="url(#s)"/><circle cx="650" cy="110" r="65" fill="#fff3cf" opacity="0.25"/><circle cx="650" cy="110" r="36" fill="#fff3cf" opacity="0.95"/><polygon points="0,520 0,220 89,228 178,259 267,231 356,241 444,239 533,214 622,226 711,236 800,239 800,520" fill="#b9a98c" /><rect x="0" y="430" width="800" height="90" rx="0" fill="#8a7a66"/><rect x="10" y="247" width="109" height="183" rx="0" fill="#7fb3a9"/><polygon points="6,247 123,247 64,207" fill="#9e4b32" /><rect x="24" y="269" width="18" height="24" rx="0" fill="#4a3c32"/><rect x="60" y="269" width="18" height="24" rx="0" fill="#4a3c32"/><rect x="24" y="309" width="18" height="24" rx="0" fill="#4a3c32"/><rect x="60" y="309" width="18" height="24" rx="0" fill="#4a3c32"/><rect x="125" y="210" width="92" height="220" rx="0" fill="#c97a9b"/><polygon points="121,210 221,210 171,170" fill="#9e4b32" /><rect x="139" y="232" width="18" height="24" rx="0" fill="#4a3c32"/><rect x="175" y="232" width="18" height="24" rx="0" fill="#4a3c32"/><rect x="139" y="272" width="18" height="24" rx="0" fill="#4a3c32"/><rect x="175" y="272" width="18" height="24" rx="0" fill="#4a3c32"/><rect x="223" y="263" width="105" height="167" rx="0" fill="#f0b36a"/><polygon points="219,263 332,263 276,223" fill="#9e4b32" /><rect x="237" y="285" width="18" height="24" rx="0" fill="#4a3c32"/><rect x="273" y="285" width="18" height="24" rx="0" fill="#4a3c32"/><rect x="237" y="325" width="18" height="24" rx="0" fill="#4a3c32"/><rect x="273" y="325" width="18" height="24" rx="0" fill="#4a3c32"/><rect x="334" y="226" width="88" height="204" rx="0" fill="#6e9fc4"/><polygon points="330,226 426,226 378,186" fill="#9e4b32" /><rect x="348" y="248" width="18" height="24" rx="0" fill="#4a3c32"/><rect x="384" y="248" width="18" height="24" rx="0" fill="#4a3c32"/><rect x="348" y="288" width="18" height="24" rx="0" fill="#4a3c32"/><rect x="384" y="288" width="18" height="24" rx="0" fill="#4a3c32"/><rect x="428" y="279" width="101" height="151" rx="0" fill="#e3a857"/><polygon points="424,279 533,279 478,239" fill="#9e4b32" /><rect x="442" y="301" width="18" height="24" rx="0" fill="#4a3c32"/><rect x="478" y="301" width="18" height="24" rx="0" fill="#4a3c32"/><rect x="442" y="341" width="18" height="24" rx="0" fill="#4a3c32"/><rect x="478" y="341" width="18" height="24" rx="0" fill="#4a3c32"/><rect x="535" y="242" width="114" height="188" rx="0" fill="#d8694b"/><polygon points="531,242 653,242 592,202" fill="#9e4b32" /><rect x="549" y="264" width="18" height="24" rx="0" fill="#4a3c32"/><rect x="585" y="264" width="18" height="24" rx="0" fill="#4a3c32"/><rect x="549" y="304" width="18" height="24" rx="0" fill="#4a3c32"/><rect x="585" y="304" width="18" height="24" rx="0" fill="#4a3c32"/><rect x="655" y="205" width="97" height="225" rx="0" fill="#e9d08a"/><polygon points="651,205 756,205 704,165" fill="#9e4b32" /><rect x="669" y="227" width="18" height="24" rx="0" fill="#4a3c32"/><rect x="705" y="227" width="18" height="24" rx="0" fill="#4a3c32"/><rect x="669" y="267" width="18" height="24" rx="0" fill="#4a3c32"/><rect x="705" y="267" width="18" height="24" rx="0" fill="#4a3c32"/><rect x="758" y="258" width="110" height="172" rx="0" fill="#7fb3a9"/><polygon points="754,258 872,258 813,218" fill="#9e4b32" /><rect x="772" y="280" width="18" height="24" rx="0" fill="#4a3c32"/><rect x="808" y="280" width="18" height="24" rx="0" fill="#4a3c32"/><rect x="772" y="320" width="18" height="24" rx="0" fill="#4a3c32"/><rect x="808" y="320" width="18" height="24" rx="0" fill="#4a3c32"/><path d="M0 470 L800 462" stroke="#444" stroke-width="3"/><rect x="480" y="436" width="110" height="32" rx="6" fill="#e8b82a"/><rect x="490" y="442" width="20" height="14" rx="0" fill="#fff"/><rect x="520" y="442" width="20" height="14" rx="0" fill="#fff"/><rect x="550" y="442" width="20" height="14" rx="0" fill="#fff"/></svg>