<svg xmlns="http://www.w3.org/2000/svg" viewBox="0 0 800 520" preserveAspectRatio="xMidYMid slice">
<defs><linearGradient id="s" x1="0" y1="0" x2="0" y2="1"><stop offset="0" stop-color="#b9d6ee"/><stop offset="1" stop-color="#f5ecd8"/></linearGradient></defs>
<rect width="800" height="520" fill="url(#s)"/><rect y="250" width="800" height="270" fill="#bba17a"/><polygon points="40,290 200,280 215,345 55,355" fill="#f6f3ea" stroke="#8a7550" stroke-width="3"/><polygon points="230,290 390,280 405,345 245,355" fill="#ece7da" stroke="#8a7550" stroke-width="3"/><polygon points="420,290 580,280 595,345 435,355" fill="#faf8f1" stroke="#8a7550" stroke-width="3"/><polygon points="610,290 770,280 785,345 625,355" fill="#e8e2d3" stroke="#8a7550" stroke-width="3"/><polygon points="40,385 200,375 215,440 55,450" fill="#f1ede2" stroke="#8a7550" stroke-width="3"/><polygon points="230,385 390,375 405,440 245,450" fill="#fbf9f3" stroke="#8a7550" stroke-width="3"/><polygon points="420,385 580,375 595,440 435,450" fill="#e9e4d6" stroke="#8a7550" stroke-width="3"/><polygon points="610,385 770,375 785,440 625,450" fill="#f3efe5" stroke="#8a7550" stroke-width="3"/></svg>