<svg xmlns="http://www.w3.org/2000/svg" viewBox="0 0 800 520" preserveAspectRatio="xMidYMid slice"><defs><linearGradient id="s" x1="0" y1="0" x2="0" y2="1"><stop offset="0" stop-color="#1b1535"/><stop offset="1" stop-color="#5a3a7d"/></linearGradient></defs><rect width="800" height="520" fill="url(#s)"/><rect x="0" y="420" width="800" height="100" rx="0" fill="#2a2145"/><path d="M70 400 l -16 -70 h 32 Z" fill="#fff" opacity=".85"/><rect x="69" y="400" width="2" height="24" rx="0" fill="#ddd"/><path d="M175 400 l -16 -70 h 32 Z" fill="#fff" opacity=".85"/><rect x="174" y="400" width="2" height="24" rx="0" fill="#ddd"/><path d="M280 400 l -16 -70 h 32 Z" fill="#fff" opacity=".85"/><rect x="279" y="400" width="2" height="24" rx="0" fill="#ddd"/><path d="M385 400 l -16 -70 h 32 Z" fill="#fff" opacity=".85"/><rect x="384" y="400" width="2" height="24" rx="0" fill="#ddd"/><path d="M490 400 l -16 -70 h 32 Z" fill="#fff" opacity=".85"/><rect x="489" y="400" width="2" height="24" rx="0" fill="#ddd"/><path d="M595 400 l -16 -70 h 32 Z" fill="#fff" opacity=".85"/><rect x="594" y="400" width="2" height="24" rx="0" fill="#ddd"/><path d="M700 400 l -16 -70 h 32 Z" fill="#fff" opacity=".85"/><rect x="699" y="400" width="2" height="24" rx="0" fill="#ddd"/><circle cx="166" cy="256" r="4" fill="#ffd77a" opacity="0.9"/><circle cx="660" cy="59" r="4" fill="#ffd77a" opacity="0.9"/><circle cx="137" cy="50" r="4" fill="#ffd77a" opacity="0.9"/><circle cx="184" cy="222" r="4" fill="#ffd77a" opacity="0.9"/><circle cx="315" cy="82" r="4" fill="#ffd77a" opacity="0.9"/><circle cx="190" cy="44" r="4" fill="#ffd77a" opacity="0.9"/><circle cx="592" cy="147" r="4" fill="#ffd77a" opacity="0.9"/><circle cx="657" cy="191" r="4" fill="#ffd77a" opacity="0.9"/><circle cx="358" cy="53" r="4" fill="#ffd77a" opacity="0.9"/><circle cx="512" cy="135" r="4" fill="#ffd77a" opacity="0.9"/><circle cx="169" cy="222" r="4" fill="#ffd77a" opacity="0.9"/><circle cx="435" cy="239" r="4" fill="#ffd77a" opacity="0.9"/><circle cx="617" cy="122" r="4" fill="#ffd77a" opacity="0.9"/><circle cx="447" cy="133" r="4" fill="#ffd77a" opacity="0.9"/><circle cx="197" cy="131" r="4" fill="#ffd77a" opacity="0.9"/><circle cx="231" cy="230" r="4" fill="#ffd77a" opacity="0.9"/><circle cx="84" cy="78" r="4" fill="#ffd77a" opacity="0.9"/><circle cx="666" cy="162" r="4" fill="#ffd77a" opacity="0.9"/><circle cx="648" cy="196" r="4" fill="#ffd77a" opacity="0.9"/><circle cx="275" cy="146" r="4" fill="#ffd77a" opacity="0.9"/><circle cx="482" cy="191" r="4" fill="#ffd77a" opacity="0.9"/><circle cx="220" cy="176" r="4" fill="#ffd77a" opacity="0.9"/><circle cx="423" cy="148" r="4" fill="#ffd77a" opacity="0.9"/><circle cx="41" cy="228" r="4" fill="#ffd77a" opacity="0.9"/><circle cx="488" cy="101" r="4" fill="#ffd77a" opacity="0.9"/><circle cx="126" cy="47" r="4" fill="#ffd77a" opacity="0.9"/><circle cx="409" cy="190" r="4" fill="#ffd77a" opacity="0.9"/><circle cx="463" cy="204" r="4" fill="#ffd77a" opacity="0.9"/><circle cx="385" cy="112" r="4" fill="#ffd77a" opacity="0.9"/><circle cx="698" cy="255" r="4" fill="#ffd77a" opacity="0.9"/><circle cx="294" cy="235" r="4" fill="#ffd77a" opacity="0.9"/><circle cx="365" cy="103" r="4" fill="#ffd77a" opacity="0.9"/><circle cx="118" cy="95" r="4" fill="#ffd77a" opacity="0.9"/><circle cx="209" cy="189" r="4" fill="#ffd77a" opacity="0.9"/><circle cx="442" cy="62" r="4" fill="#ffd77a" opacity="0.9"/><circle cx="518" cy="60" r="4" fill="#ffd77a" opacity="0.9"/><circle cx="576" cy="121" r="4" fill="#ffd77a" opacity="0.9"/><circle cx="642" cy="49" r="4" fill="#ffd77a" opacity="0.9"/><circle cx="546" cy="213" r="4" fill="#ffd77a" opacity="0.9"/><circle cx="653" cy="256" r="4" fill="#ffd77a" opacity="0.9"/></svg>