<svg xmlns="http://www.w3.org/2000/svg" viewBox="0 0 800 520" preserveAspectRatio="xMidYMid slice">
<defs><linearGradient id="s" x1="0" y1="0" x2="0" y2="1"><stop offset="0" stop-color="#8fb8dd"/><stop offset="1" stop-color="#f6e7c8"/></linearGradient></defs>
<rect width="800" height="520" fill="url(#s)"/><circle cx="160" cy="120" r="44" fill="#fff1c4" opacity=".9"/><polygon points="0,520 0,300 180,230 360,320 560,170 800,330 800,520" fill="#7b9487"/><g stroke="#333" stroke-width="3"><line x1="80" y1="380" x2="720" y2="360"/></g><g><rect x="100" y="372.0" width="46" height="34" fill="#d94f3d" transform="rotate(3 123 390)"/><rect x="162" y="371.6" width="46" height="34" fill="#f2c14e" transform="rotate(-3 185 390)"/><rect x="224" y="371.2" width="46" height="34" fill="#4a90a4" transform="rotate(3 247 390)"/><rect x="286" y="370.8" width="46" height="34" fill="#f4f4f4" transform="rotate(-3 309 390)"/><rect x="348" y="370.4" width="46" height="34" fill="#6aa84f" transform="rotate(3 371 390)"/><rect x="410" y="370.0" width="46" height="34" fill="#d94f3d" transform="rotate(-3 433 390)"/><rect x="472" y="369.6" width="46" height="34" fill="#f2c14e" transform="rotate(3 495 390)"/><rect x="534" y="369.2" width="46" height="34" fill="#4a90a4" transform="rotate(-3 557 390)"/><rect x="596" y="368.8" width="46" height="34" fill="#f4f4f4" transform="rotate(3 619 390)"/><rect x="658" y="368.4" width="46" height="34" fill="#6aa84f" transform="rotate(-3 681 390)"/></g><polygon points="0,520 0,450 400,410 800,460 800,520" fill="#3b5b4d"/></svg>